<svg id="Laag_1" data-name="Laag 1" xmlns="http://www.w3.org/2000/svg" viewBox="0 0 200.59 191.08"><defs><style>.cls-1,.cls-6,.cls-7{fill:#9ccc00;}.cls-2{fill:#ccc;}.cls-3,.cls-4{fill:none;stroke-miterlimit:10;stroke-width:0.5px;}.cls-3{stroke:#9ccc00;}.cls-4{stroke:#212d4c;}.cls-5,.cls-6,.cls-7{font-size:5.91px;font-family:Roboto-Bold, Roboto;font-weight:700;}.cls-5,.cls-9{fill:#212d4c;}.cls-7{letter-spacing:-0.02em;}.cls-8{letter-spacing:0em;}.cls-10{fill:#b5e000;}.cls-11{fill:#91a000;}.cls-12{fill:#fff;}</style></defs><title>waarom-domeinnaam</title><path class="cls-1" d="M43.24,68.31H76.32a1.57,1.57,0,0,1,1.57,1.57v5.29a1.56,1.56,0,0,1-1.57,1.56H73.08a1.57,1.57,0,0,0-1.57,1.58h0a1.57,1.57,0,0,0,1.57,1.57h34.56a1.57,1.57,0,0,0,1.57-1.57h0a1.57,1.57,0,0,0-1.57-1.58h-3A1.57,1.57,0,0,1,103,75.16V69.88a1.57,1.57,0,0,1,1.57-1.57h31.33a4.71,4.71,0,0,0,4.72-4.71V4.89A4.71,4.71,0,0,0,135.93.18H44.81A4.71,4.71,0,0,0,40.1,4.89V65.17a3.14,3.14,0,0,0,3.14,3.14m55.07,8.42H82.6A1.56,1.56,0,0,1,81,75.16V69.88a1.57,1.57,0,0,1,1.57-1.57H98.32a1.57,1.57,0,0,1,1.57,1.57v5.29A1.57,1.57,0,0,1,98.31,76.73Zm37.62-11.56H44.81a1.57,1.57,0,0,1-1.57-1.57V61a1.57,1.57,0,0,1,1.57-1.57l91.13.15a1.59,1.59,0,0,1,1.57,1.57V63.6A1.58,1.58,0,0,1,135.93,65.17ZM44.81,3.32h91.12a1.58,1.58,0,0,1,1.58,1.57v50a1.57,1.57,0,0,1-1.58,1.57l-91.12-.15a1.58,1.58,0,0,1-1.57-1.58V4.89A1.57,1.57,0,0,1,44.81,3.32Z"/><rect class="cls-2" x="51.1" y="8.88" width="78" height="16"/><rect class="cls-2" x="100.1" y="35.88" width="29" height="12"/><rect class="cls-2" x="51.1" y="28.88" width="13.89" height="2"/><rect class="cls-2" x="67.12" y="28.88" width="13.89" height="2"/><line class="cls-3" x1="57.41" y1="114.88" x2="46.65" y2="114.88"/><rect class="cls-2" x="83.15" y="28.88" width="13.89" height="2"/><rect class="cls-2" x="99.18" y="28.88" width="13.89" height="2"/><rect class="cls-2" x="115.2" y="28.88" width="13.89" height="2"/><rect class="cls-2" x="51.1" y="38.88" width="38" height="1"/><rect class="cls-2" x="51.1" y="40.88" width="33" height="1"/><rect class="cls-2" x="51.1" y="42.88" width="35" height="1"/><rect class="cls-2" x="51.1" y="44.88" width="39" height="1"/><rect class="cls-4" x="57.41" y="107.88" width="66.09" height="14" rx="7" ry="7"/><text class="cls-5" transform="translate(69.83 116.5)">domeinnaam.nl</text><text class="cls-6" transform="translate(23.41 130)">Domeinnaam</text><path class="cls-1" d="M91,103.88H90v-1h1Zm0-2H90v-1h1Zm0-2H90v-1h1Zm0-2H90v-1h1Zm0-2H90v-1h1Zm0-2H90v-1h1Zm0-2H90v-1h1Zm0-2H90v-1h1Zm0-2H90v-1h1Zm0-2H90v-1h1Zm0-2H90v-1h1Z"/><path class="cls-1" d="M153.35,115.38h-1v-1h1Zm-2,0h-1v-1h1Zm-2,0h-1v-1h1Zm-2,0h-1v-1h1Zm-2,0h-1v-1h1Zm-2,0h-1v-1h1Zm-2,0h-1v-1h1Zm-2,0h-1v-1h1Zm-2,0h-1v-1h1Zm-2,0h-1v-1h1Zm-2,0h-1v-1h1Zm-2,0h-1v-1h1Zm-2,0h-1v-1h1Zm-2,0h-1v-1h1Z"/><path class="cls-1" d="M153.36,115.35h-1v-1h1Zm0-2h-1v-1h1Zm0-2h-1v-1h1Zm0-2h-1v-1h1Zm0-2h-1v-1h1Zm0-2h-1v-1h1Zm0-2h-1v-1h1Zm0-2h-1v-1h1Zm0-2h-1v-1h1Z"/><path class="cls-1" d="M91,147.09H90v-1h1Zm0-2H90v-1h1Zm0-2H90v-1h1Zm0-2H90v-1h1Zm0-2H90v-1h1Zm0-2H90v-1h1Zm0-2H90v-1h1Zm0-2H90v-1h1Zm0-2H90v-1h1Zm0-2H90v-1h1Zm0-2H90v-1h1Z"/><path class="cls-1" d="M41,109.21a5.67,5.67,0,1,0,5.67,5.67A5.66,5.66,0,0,0,41,109.21Zm4.42,3.47H43.51a6.72,6.72,0,0,0-1-2.49A5,5,0,0,1,45.4,112.68Zm-2.4,2.2a11,11,0,0,1-.1,1.46H39.07a11,11,0,0,1-.1-1.46,11.2,11.2,0,0,1,.1-1.47H42.9A11.2,11.2,0,0,1,43,114.88Zm-2-4.94c.62,0,1.41,1,1.79,2.74H39.2C39.58,111,40.37,109.94,41,109.94Zm-1.54.25a6.65,6.65,0,0,0-1,2.49H36.57A5,5,0,0,1,39.44,110.19Zm-3.39,4.69a5.13,5.13,0,0,1,.22-1.47h2.07a10.78,10.78,0,0,0,0,2.93H36.27A5,5,0,0,1,36.05,114.88Zm.52,2.19h1.89a6.65,6.65,0,0,0,1,2.49A4.94,4.94,0,0,1,36.57,117.07ZM41,119.81c-.61,0-1.4-1-1.78-2.74h3.57c-.38,1.73-1.17,2.74-1.79,2.74Zm1.55-.25a6.58,6.58,0,0,0,1-2.49H45.4A4.94,4.94,0,0,1,42.53,119.56Zm1.1-3.22a10.78,10.78,0,0,0,0-2.93H45.7a5.13,5.13,0,0,1,.22,1.47,5,5,0,0,1-.22,1.46Z"/><text class="cls-7" transform="translate(9.72 30.56)">W<tspan class="cls-8" x="5.13" y="0">ebsite</tspan></text><line class="cls-3" x1="40.1" y1="16.68" x2="25.84" y2="16.68"/><path class="cls-1" d="M24.8,12H16.05a1,1,0,0,0-1,1v7.41a1,1,0,0,0,1,1H24.8a1,1,0,0,0,1-1V13A1,1,0,0,0,24.8,12Zm-9.08,1a.33.33,0,0,1,.33-.33h1V14H15.72Zm9.42,7.41a.34.34,0,0,1-.34.33H16.05a.33.33,0,0,1-.33-.33V14.67h9.42Zm0-6.4h-7.4V12.65H24.8a.34.34,0,0,1,.34.33Z"/><text class="cls-6" transform="translate(172.79 89.17)">E-mail</text><line class="cls-3" x1="175.98" y1="76.3" x2="161.72" y2="76.3"/><path class="cls-9" d="M60.09,169.88H58.21a.59.59,0,0,1-.6-.59V167.4a.6.6,0,0,1,.6-.6h1.88a.6.6,0,0,1,.6.6v1.89A.59.59,0,0,1,60.09,169.88Zm-1.83-.64H60v-1.79H58.26Z"/><path class="cls-9" d="M68,169.88H66.15a.59.59,0,0,1-.6-.59V167.4a.6.6,0,0,1,.6-.6H68a.6.6,0,0,1,.6.6v1.89A.59.59,0,0,1,68,169.88Zm-1.83-.64H68v-1.79H66.2Z"/><path class="cls-9" d="M72,169.88H70.12a.59.59,0,0,1-.6-.59V167.4a.6.6,0,0,1,.6-.6H72a.6.6,0,0,1,.6.6v1.89A.59.59,0,0,1,72,169.88Zm-1.83-.64H72v-1.79H70.17Z"/><path class="cls-9" d="M76,169.88H74.09a.59.59,0,0,1-.6-.59V167.4a.6.6,0,0,1,.6-.6H76a.6.6,0,0,1,.6.6v1.89A.59.59,0,0,1,76,169.88Zm-1.83-.64h1.78v-1.79H74.14Z"/><path class="cls-9" d="M79.94,169.88H78.06a.59.59,0,0,1-.6-.59V167.4a.6.6,0,0,1,.6-.6h1.88a.6.6,0,0,1,.6.6v1.89A.59.59,0,0,1,79.94,169.88Zm-1.83-.64h1.78v-1.79H78.11Z"/><path class="cls-9" d="M87.88,169.88H86a.59.59,0,0,1-.6-.59V167.4a.6.6,0,0,1,.6-.6h1.88a.6.6,0,0,1,.6.6v1.89A.59.59,0,0,1,87.88,169.88Zm-1.83-.64h1.78v-1.79H86.05Z"/><path class="cls-9" d="M95.82,169.88H93.94a.59.59,0,0,1-.6-.59V167.4a.6.6,0,0,1,.6-.6h1.88a.6.6,0,0,1,.6.6v1.89A.59.59,0,0,1,95.82,169.88ZM94,169.24h1.78v-1.79H94Z"/><path class="cls-9" d="M99.79,169.88H97.91a.59.59,0,0,1-.6-.59V167.4a.6.6,0,0,1,.6-.6h1.88a.6.6,0,0,1,.6.6v1.89A.59.59,0,0,1,99.79,169.88ZM98,169.24h1.78v-1.79H98Z"/><path class="cls-9" d="M103.76,169.88h-1.88a.59.59,0,0,1-.6-.59V167.4a.6.6,0,0,1,.6-.6h1.88a.6.6,0,0,1,.6.6v1.89A.59.59,0,0,1,103.76,169.88Zm-1.83-.64h1.78v-1.79h-1.78Z"/><path class="cls-9" d="M64.2,173.94H58.07a.6.6,0,0,1-.6-.6v-1.89a.59.59,0,0,1,.6-.59H64.2a.59.59,0,0,1,.6.59v1.89A.6.6,0,0,1,64.2,173.94Zm-6.08-.65h6V171.5h-6Z"/><path class="cls-9" d="M68,173.94H66.15a.6.6,0,0,1-.6-.6v-1.89a.59.59,0,0,1,.6-.59H68a.59.59,0,0,1,.6.59v1.89A.6.6,0,0,1,68,173.94Zm-1.83-.65H68V171.5H66.2Z"/><path class="cls-9" d="M72,173.94H70.12a.6.6,0,0,1-.6-.6v-1.89a.59.59,0,0,1,.6-.59H72a.59.59,0,0,1,.6.59v1.89A.6.6,0,0,1,72,173.94Zm-1.83-.65H72V171.5H70.17Z"/><path class="cls-9" d="M76,173.94H74.09a.6.6,0,0,1-.6-.6v-1.89a.59.59,0,0,1,.6-.59H76a.59.59,0,0,1,.6.59v1.89A.6.6,0,0,1,76,173.94Zm-1.83-.65h1.78V171.5H74.14Z"/><path class="cls-9" d="M79.94,173.94H78.06a.6.6,0,0,1-.6-.6v-1.89a.59.59,0,0,1,.6-.59h1.88a.59.59,0,0,1,.6.59v1.89A.6.6,0,0,1,79.94,173.94Zm-1.83-.65h1.78V171.5H78.11Z"/><path class="cls-9" d="M83.91,173.94H82a.6.6,0,0,1-.6-.6v-1.89a.59.59,0,0,1,.6-.59h1.88a.59.59,0,0,1,.6.59v1.89A.6.6,0,0,1,83.91,173.94Zm-1.83-.65h1.78V171.5H82.08Z"/><path class="cls-9" d="M87.88,173.94H86a.6.6,0,0,1-.6-.6v-1.89a.59.59,0,0,1,.6-.59h1.88a.59.59,0,0,1,.6.59v1.89A.6.6,0,0,1,87.88,173.94Zm-1.83-.65h1.78V171.5H86.05Z"/><path class="cls-9" d="M91.85,173.94H90a.6.6,0,0,1-.6-.6v-1.89a.59.59,0,0,1,.6-.59h1.88a.59.59,0,0,1,.6.59v1.89A.6.6,0,0,1,91.85,173.94ZM90,173.29H91.8V171.5H90Z"/><path class="cls-9" d="M99.79,173.94H97.91a.6.6,0,0,1-.6-.6v-1.89a.59.59,0,0,1,.6-.59h1.88a.59.59,0,0,1,.6.59v1.89A.6.6,0,0,1,99.79,173.94ZM98,173.29h1.78V171.5H98Z"/><path class="cls-9" d="M103.76,173.94h-1.88a.6.6,0,0,1-.6-.6v-1.89a.59.59,0,0,1,.6-.59h1.88a.59.59,0,0,1,.6.59v1.89A.6.6,0,0,1,103.76,173.94Zm-1.83-.65h1.78V171.5h-1.78Z"/><path class="cls-9" d="M68,178H58.21a.6.6,0,0,1-.6-.6v-1.88a.6.6,0,0,1,.6-.6H68a.6.6,0,0,1,.6.6v1.88A.6.6,0,0,1,68,178Zm-9.77-.65H68v-1.78H58.26Z"/><path class="cls-9" d="M72,178H70.12a.6.6,0,0,1-.6-.6v-1.88a.6.6,0,0,1,.6-.6H72a.6.6,0,0,1,.6.6v1.88A.6.6,0,0,1,72,178Zm-1.83-.65H72v-1.78H70.17Z"/><path class="cls-9" d="M76,178H74.09a.6.6,0,0,1-.6-.6v-1.88a.6.6,0,0,1,.6-.6H76a.6.6,0,0,1,.6.6v1.88A.6.6,0,0,1,76,178Zm-1.83-.65h1.78v-1.78H74.14Z"/><path class="cls-9" d="M79.94,178H78.06a.6.6,0,0,1-.6-.6v-1.88a.6.6,0,0,1,.6-.6h1.88a.6.6,0,0,1,.6.6v1.88A.6.6,0,0,1,79.94,178Zm-1.83-.65h1.78v-1.78H78.11Z"/><path class="cls-9" d="M83.91,178H82a.6.6,0,0,1-.6-.6v-1.88a.6.6,0,0,1,.6-.6h1.88a.6.6,0,0,1,.6.6v1.88A.6.6,0,0,1,83.91,178Zm-1.83-.65h1.78v-1.78H82.08Z"/><path class="cls-9" d="M87.88,178H86a.6.6,0,0,1-.6-.6v-1.88a.6.6,0,0,1,.6-.6h1.88a.6.6,0,0,1,.6.6v1.88A.6.6,0,0,1,87.88,178Zm-1.83-.65h1.78v-1.78H86.05Z"/><path class="cls-9" d="M99.79,178H97.91a.6.6,0,0,1-.6-.6v-1.88a.6.6,0,0,1,.6-.6h1.88a.6.6,0,0,1,.6.6v1.88A.6.6,0,0,1,99.79,178ZM98,177.34h1.78v-1.78H98Z"/><path class="cls-9" d="M95.82,178H90a.58.58,0,0,1-.6-.6v-1.88a.6.6,0,0,1,.6-.6h3.37v-3.29a.59.59,0,0,1,.6-.59h1.88a.59.59,0,0,1,.6.59v5.77A.6.6,0,0,1,95.82,178Zm-5.8-.65h5.75v-5.67H94v3.56a.33.33,0,0,1-.33.33H90Z"/><path class="cls-9" d="M60.09,182H58.21a.59.59,0,0,1-.6-.59v-1.89a.6.6,0,0,1,.6-.6h1.88a.6.6,0,0,1,.6.6v1.89A.59.59,0,0,1,60.09,182Zm-1.83-.64H60v-1.79H58.26Z"/><path class="cls-9" d="M64.06,182H62.18a.59.59,0,0,1-.6-.59v-1.89a.6.6,0,0,1,.6-.6h1.88a.6.6,0,0,1,.6.6v1.89A.59.59,0,0,1,64.06,182Zm-1.83-.64H64v-1.79H62.23Z"/><path class="cls-9" d="M68,182H66.15a.59.59,0,0,1-.6-.59v-1.89a.6.6,0,0,1,.6-.6H68a.6.6,0,0,1,.6.6v1.89A.59.59,0,0,1,68,182Zm-1.83-.64H68v-1.79H66.2Z"/><path class="cls-9" d="M83.91,182H70.12a.59.59,0,0,1-.6-.59v-1.89a.6.6,0,0,1,.6-.6H83.91a.6.6,0,0,1,.6.6v1.89A.59.59,0,0,1,83.91,182Zm-13.74-.64H83.86v-1.79H70.17Z"/><path class="cls-9" d="M87.88,182H86a.59.59,0,0,1-.6-.59v-1.89a.6.6,0,0,1,.6-.6h1.88a.6.6,0,0,1,.6.6v1.89A.59.59,0,0,1,87.88,182Zm-1.83-.64h1.78v-1.79H86.05Z"/><path class="cls-9" d="M91.85,182H90a.59.59,0,0,1-.6-.59v-1.89a.6.6,0,0,1,.6-.6h1.88a.6.6,0,0,1,.6.6v1.89A.59.59,0,0,1,91.85,182ZM90,181.4H91.8v-1.79H90Z"/><path class="cls-9" d="M95.82,182H93.94a.59.59,0,0,1-.6-.59v-1.89a.6.6,0,0,1,.6-.6h1.88a.6.6,0,0,1,.6.6v1.89A.59.59,0,0,1,95.82,182ZM94,181.4h1.78v-1.79H94Z"/><path class="cls-9" d="M99.79,182H97.91a.59.59,0,0,1-.6-.59v-1.89a.6.6,0,0,1,.6-.6h1.88a.6.6,0,0,1,.6.6v1.89A.59.59,0,0,1,99.79,182ZM98,181.4h1.78v-1.79H98Z"/><path class="cls-9" d="M103.76,182.18h-1.88a.6.6,0,0,1-.6-.6v-6.07a.6.6,0,0,1,.6-.6h1.88a.6.6,0,0,1,.6.6v6.07A.6.6,0,0,1,103.76,182.18Zm-1.83-.65h1.78v-6h-1.78Z"/><path class="cls-9" d="M105.16,183.6H56.68a.68.68,0,0,1-.68-.68V165.85a.68.68,0,0,1,.68-.68h48.48a.67.67,0,0,1,.68.68v17.07A.67.67,0,0,1,105.16,183.6ZM56.68,165.82a0,0,0,0,0,0,0v17.07a0,0,0,0,0,0,0h48.48a0,0,0,0,0,0,0V165.85a0,0,0,0,0,0,0Z"/><path class="cls-9" d="M93.81,165.82a.32.32,0,0,1-.32-.33v-3.67a2.23,2.23,0,0,1,2.23-2.24h1.7A1.58,1.58,0,0,0,99,158v0a1.59,1.59,0,0,0-1.58-1.59H92.34a2.23,2.23,0,0,1-2.23-2.23v-3.7a.32.32,0,0,1,.32-.32.32.32,0,0,1,.33.32v3.7a1.58,1.58,0,0,0,1.58,1.58h5.08A2.24,2.24,0,0,1,99.65,158v0a2.23,2.23,0,0,1-2.23,2.23h-1.7a1.59,1.59,0,0,0-1.59,1.59v3.67A.32.32,0,0,1,93.81,165.82Z"/><path class="cls-9" d="M104.22,190.66H57.62a.68.68,0,0,1-.7-.61L56,185v0a.68.68,0,0,1,.7-.64h48.44a.67.67,0,0,1,.7.64v0l-.92,5.08A.68.68,0,0,1,104.22,190.66ZM57.57,190l0,0h46.6a.06.06,0,0,0,0,0h0l.91-5H56.66l.91,5Z"/><path class="cls-10" d="M162.24,74.87c0-4.66-4.16-8.45-9.34-8.45s-9.43,3.78-9.43,8.43V95.33h18.77V74.87Z"/><path class="cls-11" d="M161.61,75.46v-.59a7.19,7.19,0,0,0-.67-3,8,8,0,0,0-1.85-2.49,8.89,8.89,0,0,0-2.77-1.69,9.6,9.6,0,0,0-3.42-.62,9.75,9.75,0,0,0-3.44.62,9,9,0,0,0-2.8,1.69,7.73,7.73,0,0,0-1.88,2.48,7,7,0,0,0-.68,3V94.71h17.52V75.46ZM161,94.08H144.73V74.85a6.38,6.38,0,0,1,.62-2.74,7.15,7.15,0,0,1,1.73-2.28,8.37,8.37,0,0,1,2.6-1.57,9,9,0,0,1,3.22-.58,8.85,8.85,0,0,1,3.2.58,8.22,8.22,0,0,1,2.57,1.57,7.13,7.13,0,0,1,1.7,2.29,6.56,6.56,0,0,1,.61,2.75c0,.21,0,.4,0,.6V94.08Z"/><rect class="cls-11" x="147.26" y="83.41" width="11.23" height="9.03" rx="1" ry="1"/><rect class="cls-11" x="146.86" y="79.05" width="12.03" height="1.14"/><polygon class="cls-1" points="159.33 79.08 146.43 79.08 146.86 77.34 158.89 77.34 159.33 79.08"/><path class="cls-12" d="M153.8,89.77a2.13,2.13,0,0,1-1.07.24,1.78,1.78,0,0,1-1.82-1.87,2.2,2.2,0,0,1,2.19-2.3,1.67,1.67,0,0,1,1.75,1.73c0,.9-.51,1.43-1.07,1.43-.24,0-.46-.16-.45-.53h0a.94.94,0,0,1-.85.53.68.68,0,0,1-.64-.76,1.41,1.41,0,0,1,1.42-1.42,1.61,1.61,0,0,1,.64.13l-.2,1.08c-.09.46,0,.67.18.68s.64-.41.64-1.1a1.38,1.38,0,0,0-1.45-1.5,1.85,1.85,0,0,0-1.8,2,1.5,1.5,0,0,0,1.54,1.62,2,2,0,0,0,.91-.21Zm-.33-2.59a1,1,0,0,0-1.26,1c0,.26.13.46.4.46s.66-.45.73-.82Z"/><path class="cls-1" d="M185.72,72.26H177a1,1,0,0,0-1,1v6a1,1,0,0,0,1,1h8.73a1,1,0,0,0,1-1v-6A1,1,0,0,0,185.72,72.26Zm-8.73.68h8.73a.33.33,0,0,1,.33.33v.87c-.46.39-1.12.92-3.16,2.55-.35.28-1,1-1.54,1s-1.19-.67-1.54-1c-2-1.63-2.7-2.16-3.16-2.55v-.87A.34.34,0,0,1,177,72.94Zm8.73,6.71H177a.34.34,0,0,1-.34-.34V75c.48.4,1.23,1,2.74,2.2.43.34,1.19,1.1,2,1.1s1.52-.75,2-1.1c1.51-1.2,2.26-1.8,2.74-2.2v4.3A.34.34,0,0,1,185.72,79.65Z"/></svg>